<svg id="Layer_1" data-name="Layer 1" xmlns="http://www.w3.org/2000/svg" viewBox="0 0 512 512"><defs><style>.cls-1{fill:#777;}</style></defs><title>book</title><path class="cls-1" d="M109.91359,391q-32.75937,0-55.47929-12.1875A82.36683,82.36683,0,0,1,19.738,343.937Q7.75837,321.2539,6.35259,289.37524,5.99742,274.00262,6,256.37476q0-17.62207.35259-33.75,1.40351-31.49964,13.56138-54.375A83.26547,83.26547,0,0,1,54.78689,133.1875Q77.5068,121.00549,109.91359,121q23.95054,0,42.97454,6.74988A97.78635,97.78635,0,0,1,185.2952,146.3125a84.21964,84.21964,0,0,1,20.78237,27.56226,83.131,83.131,0,0,1,7.7496,34.12536,6.552,6.552,0,0,1-1.93726,5.625,7.527,7.527,0,0,1-5.45975,2.24976H172.96647a9.52312,9.52312,0,0,1-6.34038-2.06238q-2.469-2.05627-3.52249-6.93726-5.63892-24.75036-19.37372-33.75-13.73824-9.00054-34.16831-9.00024-23.604,0-37.69081,14.0625Q57.7782,192.25,56.72415,224.49976q-1.05692,30.75348,0,63.00048,1.05691,32.25586,15.14661,46.31226,14.08482,14.0625,37.69081,14.0625,20.42462,0,34.16831-9.187,13.73737-9.18458,19.37372-33.56323,1.05606-5.24689,3.52249-7.12464a10.18082,10.18082,0,0,1,6.34038-1.875h33.46369a7.527,7.527,0,0,1,5.45975,2.24976,6.552,6.552,0,0,1,1.93726,5.625,83.10854,83.10854,0,0,1-7.7496,34.12536A84.226,84.226,0,0,1,185.2952,365.6875a97.77465,97.77465,0,0,1-32.40707,18.562Q133.867,391.00061,109.91359,391Z"/><path class="cls-1" d="M377.781,387.25q-5.63805,0-8.80623-3.00049a17.12407,17.12407,0,0,1-4.57856-7.5L289.01457,136a9.61321,9.61321,0,0,1-.704-3.37524,7.89605,7.89605,0,0,1,2.11327-5.625,6.95007,6.95007,0,0,1,5.28374-2.24976H326.7048q4.92944,0,7.5736,2.8125a13.29016,13.29016,0,0,1,3.34705,5.43762l59.52924,193.12439,59.17837-193.12439a18.02064,18.02064,0,0,1,3.69908-5.43762q2.64186-2.8125,7.57244-2.8125H498.603a7.13827,7.13827,0,0,1,5.10716,2.24976A7.56952,7.56952,0,0,1,506,132.62476,9.74367,9.74367,0,0,1,505.296,136L429.91435,376.74951a17.16857,17.16857,0,0,1-4.5797,7.5q-3.1699,3.0066-8.80624,3.00049Z"/></svg>